<svg width="21" height="20" viewBox="0 0 21 20" fill="none" xmlns="http://www.w3.org/2000/svg">
<path fill-rule="evenodd" clip-rule="evenodd" d="M16.3334 1.66667C16.6023 2.91924 17.5808 3.8977 18.8334 4.16667C17.5808 4.43565 16.6023 5.4141 16.3334 6.66667C16.0644 5.4141 15.0859 4.43565 13.8334 4.16667C15.0859 3.8977 16.0644 2.91924 16.3334 1.66667ZM8.06006 1.83334C8.81964 5.37061 11.5828 8.13376 15.1201 8.89334C11.5828 9.65292 8.81964 12.4161 8.06006 15.9533C7.30048 12.4161 4.53733 9.65292 1.00006 8.89334C4.53733 8.13376 7.30048 5.37061 8.06006 1.83334ZM18.8334 15C17.1633 14.6414 15.8587 13.3368 15.5 11.6667C15.1414 13.3368 13.8368 14.6414 12.1667 15C13.8368 15.3586 15.1414 16.6632 15.5 18.3333C15.8587 16.6632 17.1633 15.3586 18.8334 15Z" fill="#387FF5"/>
</svg>
