<svg width="20" height="20" viewBox="0 0 20 20" fill="none" xmlns="http://www.w3.org/2000/svg">
<path fill-rule="evenodd" clip-rule="evenodd" d="M18.4225 9.99494C18.7154 10.2878 18.7154 10.7627 18.4225 11.0556L17.7873 11.6908C17.4945 11.9837 17.0196 11.9837 16.7267 11.6908C16.4338 11.3979 16.4338 10.923 16.7267 10.6301L17.3619 9.99494C17.6548 9.70205 18.1296 9.70205 18.4225 9.99494Z" fill="white" fill-opacity="0.9"/>
<path fill-rule="evenodd" clip-rule="evenodd" d="M11.6909 16.7266C11.9837 17.0195 11.9837 17.4944 11.6909 17.7873L11.0557 18.4225C10.7628 18.7154 10.2879 18.7154 9.99501 18.4225C9.70211 18.1296 9.70211 17.6547 9.99501 17.3618L10.6302 16.7266C10.9231 16.4337 11.398 16.4337 11.6909 16.7266Z" fill="white" fill-opacity="0.9"/>
<path fill-rule="evenodd" clip-rule="evenodd" d="M14.2088 8.24955C14.623 8.24955 14.9588 8.58534 14.9588 8.99955V9.89783C14.9588 10.312 14.623 10.6478 14.2088 10.6478C13.7946 10.6478 13.4588 10.312 13.4588 9.89783V8.99955C13.4588 8.58534 13.7946 8.24955 14.2088 8.24955Z" fill="white" fill-opacity="0.9"/>
<path fill-rule="evenodd" clip-rule="evenodd" d="M9.99501 9.99494C10.2879 9.70205 10.7628 9.70205 11.0557 9.99494L11.6909 10.6301C11.9837 10.923 11.9837 11.3979 11.6909 11.6908C11.398 11.9837 10.9231 11.9837 10.6302 11.6908L9.99501 11.0556C9.70211 10.7627 9.70211 10.2878 9.99501 9.99494Z" fill="white" fill-opacity="0.9"/>
<path fill-rule="evenodd" clip-rule="evenodd" d="M8.24961 14.2087C8.24961 13.7945 8.5854 13.4587 8.99961 13.4587H9.89789C10.3121 13.4587 10.6479 13.7945 10.6479 14.2087C10.6479 14.6229 10.3121 14.9587 9.89789 14.9587H8.99961C8.5854 14.9587 8.24961 14.6229 8.24961 14.2087Z" fill="white" fill-opacity="0.9"/>
<path fill-rule="evenodd" clip-rule="evenodd" d="M13.0787 13.0786C13.4278 12.7295 13.9442 12.6076 14.4125 12.7637L18.8624 14.247C19.3453 14.408 19.6903 14.8353 19.7459 15.3413C19.8014 15.8473 19.5574 16.3393 19.1209 16.6012L17.6227 17.5002C17.5725 17.5303 17.5304 17.5723 17.5003 17.6226L16.6014 19.1207C16.3395 19.5572 15.8474 19.8014 15.3414 19.7458C14.8354 19.6903 14.408 19.3452 14.2471 18.8623L12.7638 14.4125C12.6076 13.9441 12.7295 13.4277 13.0787 13.0786ZM14.3111 14.311L17.9827 15.5349L16.851 16.2139C16.5896 16.3707 16.3708 16.5895 16.214 16.8508L15.535 17.9826L14.3111 14.311Z" fill="white" fill-opacity="0.9"/>
<path fill-rule="evenodd" clip-rule="evenodd" d="M16.4933 16.4932C16.7862 16.2003 17.261 16.2003 17.5539 16.4932L19.25 18.1893C19.5429 18.4822 19.5429 18.9571 19.25 19.2499C18.9571 19.5428 18.4822 19.5428 18.1893 19.2499L16.4933 17.5539C16.2004 17.261 16.2004 16.7861 16.4933 16.4932Z" fill="white" fill-opacity="0.9"/>
<path fill-rule="evenodd" clip-rule="evenodd" d="M0.246277 4.99788C0.246277 4.58367 0.582063 4.24788 0.996277 4.24788H19.0038C19.418 4.24788 19.7538 4.58367 19.7538 4.99788C19.7538 5.4121 19.418 5.74788 19.0038 5.74788H0.996277C0.582063 5.74788 0.246277 5.4121 0.246277 4.99788Z" fill="white" fill-opacity="0.9"/>
<path fill-rule="evenodd" clip-rule="evenodd" d="M3.99753 1.74622C2.7542 1.74622 1.74628 2.75413 1.74628 3.99747V12.0008C1.74628 13.2441 2.7542 14.252 3.99753 14.252H4.99794C5.41216 14.252 5.74794 14.5878 5.74794 15.002C5.74794 15.4163 5.41216 15.752 4.99794 15.752H3.99753C1.92577 15.752 0.246277 14.0726 0.246277 12.0008V3.99747C0.246277 1.92571 1.92577 0.246216 3.99753 0.246216H16.0025C18.0743 0.246216 19.7538 1.92571 19.7538 3.99747V6.99872C19.7538 7.41293 19.418 7.74872 19.0038 7.74872C18.5896 7.74872 18.2538 7.41293 18.2538 6.99872V3.99747C18.2538 2.75413 17.2459 1.74622 16.0025 1.74622H3.99753Z" fill="white" fill-opacity="0.9"/>
</svg>
