<svg width="24" height="24" viewBox="0 0 24 24" fill="none" xmlns="http://www.w3.org/2000/svg">
<path fill-rule="evenodd" clip-rule="evenodd" d="M7 3.75C6.30964 3.75 5.75 4.30964 5.75 5V9C5.75 9.41421 5.41421 9.75 5 9.75C4.58579 9.75 4.25 9.41421 4.25 9V5C4.25 3.48122 5.48122 2.25 7 2.25H19C20.5188 2.25 21.75 3.48122 21.75 5V18C21.75 19.5188 20.5188 20.75 19 20.75H15C14.5858 20.75 14.25 20.4142 14.25 20C14.25 19.5858 14.5858 19.25 15 19.25H19C19.6904 19.25 20.25 18.6904 20.25 18V5C20.25 4.30964 19.6904 3.75 19 3.75H7ZM14.25 7C14.25 6.58579 14.5858 6.25 15 6.25H16.9999H17C17.4142 6.25 17.75 6.58579 17.75 7V9C17.75 9.41421 17.4142 9.75 17 9.75C16.5858 9.75 16.25 9.41421 16.25 9V8.8112L14.5319 10.5302C14.3907 10.6715 14.2072 10.7446 14.0222 10.7497C13.8505 10.7549 13.6761 10.7014 13.5315 10.5857L11.5557 9.005L10.5303 10.0303C10.2374 10.3232 9.76256 10.3232 9.46967 10.0303C9.17678 9.73744 9.17678 9.26256 9.46967 8.96967L10.9658 7.47353C11.1102 7.32665 11.3038 7.25039 11.499 7.25C11.5896 7.24982 11.6806 7.26598 11.7671 7.29899C11.8413 7.32721 11.9119 7.36762 11.9759 7.42022L13.945 8.99554L15.1899 7.75H15C14.5858 7.75 14.25 7.41421 14.25 7ZM14.25 13C14.25 12.5858 14.5858 12.25 15 12.25H17C17.4142 12.25 17.75 12.5858 17.75 13C17.75 13.4142 17.4142 13.75 17 13.75H15C14.5858 13.75 14.25 13.4142 14.25 13ZM15 15.25C14.5858 15.25 14.25 15.5858 14.25 16C14.25 16.4142 14.5858 16.75 15 16.75H17C17.4142 16.75 17.75 16.4142 17.75 16C17.75 15.5858 17.4142 15.25 17 15.25H15ZM9.09785 15.6862C9.39083 15.979 9.39095 16.4539 9.09814 16.7469L7.09921 18.7469C6.80643 19.0398 6.33163 19.04 6.03864 18.7472L4.83758 17.5472C4.54456 17.2545 4.54435 16.7796 4.83711 16.4866C5.12988 16.1936 5.60475 16.1933 5.89777 16.4861L6.56836 17.1561L8.03719 15.6865C8.33001 15.3935 8.80488 15.3934 9.09785 15.6862ZM5 11.25C2.92893 11.25 1.25 12.9289 1.25 15V19C1.25 21.0711 2.92893 22.75 5 22.75H9C11.0711 22.75 12.75 21.0711 12.75 19V15C12.75 12.9289 11.0711 11.25 9 11.25H5ZM2.75 15C2.75 13.7574 3.75736 12.75 5 12.75H9C10.2426 12.75 11.25 13.7574 11.25 15V19C11.25 20.2426 10.2426 21.25 9 21.25H5C3.75736 21.25 2.75 20.2426 2.75 19V15Z" fill="white" fill-opacity="0.9"/>
</svg>
