<svg width="61" height="61" viewBox="0 0 61 61" fill="none" xmlns="http://www.w3.org/2000/svg">
<mask id="mask0_1_1530" style="mask-type:alpha" maskUnits="userSpaceOnUse" x="0" y="0" width="61" height="61">
<rect x="0.074707" y="0.961792" width="60" height="60" fill="#D9D9D9"/>
</mask>
<g mask="url(#mask0_1_1530)">
<path d="M22.5747 23.4618V18.4618H45.0747V23.4618H22.5747ZM22.5747 30.9618V25.9618H45.0747V30.9618H22.5747ZM30.0747 55.9618H15.0747C12.9914 55.9618 11.2205 55.2326 9.76221 53.7743C8.30387 52.316 7.57471 50.5451 7.57471 48.4618V40.9618H15.0747V5.96179H52.5747V28.5243C51.7414 28.441 50.8976 28.4722 50.0435 28.618C49.1893 28.7639 48.3664 29.0243 47.5747 29.3993V10.9618H20.0747V40.9618H35.0747L30.0747 45.9618H12.5747V48.4618C12.5747 49.1701 12.8143 49.7639 13.2935 50.243C13.7726 50.7222 14.3664 50.9618 15.0747 50.9618H30.0747V55.9618ZM35.0747 55.9618V48.2743L48.8872 34.5243C49.2622 34.1493 49.6789 33.8785 50.1372 33.7118C50.5955 33.5451 51.0539 33.4618 51.5122 33.4618C52.0122 33.4618 52.4914 33.5555 52.9497 33.743C53.408 33.9305 53.8247 34.2118 54.1997 34.5868L56.5122 36.8993C56.8455 37.2743 57.106 37.691 57.2935 38.1493C57.481 38.6076 57.5747 39.066 57.5747 39.5243C57.5747 39.9826 57.4914 40.4514 57.3247 40.9305C57.158 41.4097 56.8872 41.8368 56.5122 42.2118L42.7622 55.9618H35.0747ZM38.8247 52.2118H41.1997L48.7622 44.5868L47.6372 43.3993L46.4497 42.2743L38.8247 49.8368V52.2118ZM47.6372 43.3993L46.4497 42.2743L48.7622 44.5868L47.6372 43.3993Z" fill="#75B73E"/>
</g>
</svg>
