<svg width="18" height="18" viewBox="0 0 18 18" fill="none" xmlns="http://www.w3.org/2000/svg">
<path fill-rule="evenodd" clip-rule="evenodd" d="M16.0784 4.08455C16.3013 4.6733 16.4177 5.29782 16.4268 5.92733C16.4732 6.71947 16.4734 6.97854 16.475 8.98365L16.4751 9.01165C16.4751 11.0432 16.4643 11.2968 16.4285 12.0968C16.416 12.7197 16.2988 13.3334 16.0801 13.9155C15.6901 14.92 14.8959 15.715 13.8905 16.105C13.3084 16.3237 12.6939 16.441 12.0727 16.4534C11.2786 16.5 11.0183 16.5 8.98766 16.5H8.98754C6.95682 16.5 6.70319 16.4892 5.90238 16.4534C5.27869 16.4335 4.66416 16.3054 4.08538 16.0792C3.07917 15.6901 2.28501 14.8951 1.895 13.8905C1.67629 13.3076 1.55904 12.6939 1.54657 12.0719C1.5 11.2769 1.5 11.0174 1.5 8.9867C1.5 6.95599 1.51081 6.70236 1.54657 5.90155C1.55821 5.28036 1.67629 4.66582 1.895 4.08455C2.28418 3.07917 3.07917 2.28418 4.08455 1.895C4.66582 1.67629 5.28036 1.55904 5.90155 1.54574C6.6957 1.5 6.95599 1.5 8.9867 1.5C11.0174 1.5 11.2711 1.50998 12.071 1.54574C12.693 1.55904 13.3076 1.67629 13.8889 1.895C14.8942 2.28418 15.6884 3.07917 16.0784 4.08455ZM5.13732 8.98255C5.13732 11.1064 6.85786 12.8269 8.98171 12.8269C11.1039 12.8269 12.8261 11.1064 12.8261 8.98255C12.8261 6.85869 11.1039 5.13816 8.98171 5.13816C6.85786 5.13816 5.13732 6.85869 5.13732 8.98255ZM12.0827 4.99596C12.0827 5.49158 12.4827 5.8924 12.9791 5.8924C13.4739 5.8924 13.8747 5.49158 13.8747 4.99596C13.8747 4.50034 13.4739 4.09951 12.9791 4.09951C12.4827 4.09951 12.0827 4.50034 12.0827 4.99596ZM11.4789 8.98251C11.4789 10.3617 10.3608 11.4797 8.98167 11.4797C7.60248 11.4797 6.48444 10.3617 6.48444 8.98251C6.48444 7.60332 7.60248 6.48528 8.98167 6.48528C10.3608 6.48528 11.4789 7.60332 11.4789 8.98251Z" fill="#343844"/>
</svg>
