<svg width="18" height="18" viewBox="0 0 18 18" fill="none" xmlns="http://www.w3.org/2000/svg">
<path fill-rule="evenodd" clip-rule="evenodd" d="M14 1.5C14.663 1.5 15.2989 1.76339 15.7678 2.23223C16.2366 2.70107 16.5 3.33696 16.5 4V14C16.5 14.663 16.2366 15.2989 15.7678 15.7678C15.2989 16.2366 14.663 16.5 14 16.5H4C3.33696 16.5 2.70107 16.2366 2.23223 15.7678C1.76339 15.2989 1.5 14.663 1.5 14V4C1.5 3.33696 1.76339 2.70107 2.23223 2.23223C2.70107 1.76339 3.33696 1.5 4 1.5H14ZM5.66667 7.33333C5.44565 7.33333 5.23369 7.42113 5.07741 7.57741C4.92113 7.73369 4.83333 7.94565 4.83333 8.16667V12.3333C4.83333 12.5543 4.92113 12.7663 5.07741 12.9226C5.23369 13.0789 5.44565 13.1667 5.66667 13.1667C5.88768 13.1667 6.09964 13.0789 6.25592 12.9226C6.4122 12.7663 6.5 12.5543 6.5 12.3333V8.16667C6.5 7.94565 6.4122 7.73369 6.25592 7.57741C6.09964 7.42113 5.88768 7.33333 5.66667 7.33333ZM8.16667 6.5C7.94565 6.5 7.73369 6.5878 7.57741 6.74408C7.42113 6.90036 7.33333 7.11232 7.33333 7.33333V12.3333C7.33333 12.5543 7.42113 12.7663 7.57741 12.9226C7.73369 13.0789 7.94565 13.1667 8.16667 13.1667C8.38768 13.1667 8.59964 13.0789 8.75592 12.9226C8.9122 12.7663 9 12.5543 9 12.3333V9.28333C9.32511 8.92969 9.7205 8.64784 10.1608 8.45583C10.4383 8.3375 10.8558 8.28917 11.1458 8.38083C11.242 8.40524 11.3277 8.46022 11.39 8.5375C11.4333 8.59583 11.5 8.72583 11.5 9V12.3333C11.5 12.5543 11.5878 12.7663 11.7441 12.9226C11.9004 13.0789 12.1123 13.1667 12.3333 13.1667C12.5543 13.1667 12.7663 13.0789 12.9226 12.9226C13.0789 12.7663 13.1667 12.5543 13.1667 12.3333V9C13.1667 8.44167 13.025 7.945 12.73 7.54667C12.4585 7.18546 12.0786 6.9206 11.6458 6.79083C10.8942 6.555 10.0617 6.68583 9.50583 6.92417C9.32774 7.00039 9.15437 7.08721 8.98667 7.18417C8.95173 6.99216 8.85052 6.8185 8.70066 6.69347C8.55081 6.56844 8.36183 6.49997 8.16667 6.5ZM5.66667 4.83333C5.44565 4.83333 5.23369 4.92113 5.07741 5.07741C4.92113 5.23369 4.83333 5.44565 4.83333 5.66667C4.83333 5.88768 4.92113 6.09964 5.07741 6.25592C5.23369 6.4122 5.44565 6.5 5.66667 6.5C5.88768 6.5 6.09964 6.4122 6.25592 6.25592C6.4122 6.09964 6.5 5.88768 6.5 5.66667C6.5 5.44565 6.4122 5.23369 6.25592 5.07741C6.09964 4.92113 5.88768 4.83333 5.66667 4.83333Z" fill="#343844"/>
</svg>
