<svg width="60" height="60" viewBox="0 0 60 60" fill="none" xmlns="http://www.w3.org/2000/svg">
<path d="M22.7675 13.62C24.2625 9.245 30.3075 9.1125 32.08 13.2225L32.23 13.6225L34.2475 19.5225C34.7099 20.8756 35.457 22.1138 36.4386 23.1536C37.4201 24.1933 38.6133 25.0105 39.9375 25.55L40.48 25.7525L46.38 27.7675C50.755 29.2625 50.8875 35.3075 46.78 37.08L46.38 37.23L40.48 39.2475C39.1265 39.7096 37.8878 40.4566 36.8475 41.4382C35.8073 42.4197 34.9897 43.613 34.45 44.9375L34.2475 45.4775L32.2325 51.38C30.7375 55.755 24.6925 55.8875 22.9225 51.78L22.7675 51.38L20.7525 45.48C20.2904 44.1265 19.5434 42.8878 18.5619 41.8476C17.5803 40.8073 16.387 39.9897 15.0625 39.45L14.5225 39.2475L8.6225 37.2325C4.245 35.7375 4.1125 29.6925 8.2225 27.9225L8.6225 27.7675L14.5225 25.7525C15.8756 25.2901 17.1138 24.543 18.1536 23.5614C19.1933 22.5799 20.0105 21.3867 20.55 20.0625L20.7525 19.5225L22.7675 13.62ZM27.5 15.235L25.485 21.135C24.781 23.1983 23.6357 25.0833 22.1288 26.6587C20.622 28.2342 18.7899 29.4623 16.76 30.2575L16.135 30.485L10.235 32.5L16.135 34.515C18.1983 35.219 20.0833 36.3643 21.6587 37.8712C23.2342 39.378 24.4623 41.2101 25.2575 43.24L25.485 43.865L27.5 49.765L29.515 43.865C30.219 41.8018 31.3643 39.9168 32.8712 38.3413C34.378 36.7658 36.2101 35.5377 38.24 34.7425L38.865 34.5175L44.765 32.5L38.865 30.485C36.8017 29.781 34.9167 28.6357 33.3413 27.1288C31.7658 25.622 30.5377 23.7899 29.7425 21.76L29.5175 21.135L27.5 15.235ZM47.5 5C47.9677 5 48.426 5.1312 48.8229 5.37868C49.2197 5.62616 49.5392 5.98001 49.745 6.4L49.865 6.6925L50.74 9.2575L53.3075 10.1325C53.7762 10.2917 54.1871 10.5865 54.4881 10.9795C54.7891 11.3725 54.9666 11.846 54.9982 12.3401C55.0298 12.8341 54.914 13.3263 54.6655 13.7545C54.4171 14.1826 54.0471 14.5274 53.6025 14.745L53.3075 14.865L50.7425 15.74L49.8675 18.3075C49.708 18.7761 49.413 19.1867 49.0198 19.4875C48.6267 19.7882 48.1531 19.9655 47.6591 19.9968C47.1651 20.0281 46.6729 19.9121 46.245 19.6635C45.817 19.4148 45.4724 19.0447 45.255 18.6L45.135 18.3075L44.26 15.7425L41.6925 14.8675C41.2238 14.7083 40.8129 14.4135 40.5119 14.0205C40.2109 13.6275 40.0334 13.154 40.0018 12.66C39.9702 12.1659 40.086 11.6737 40.3345 11.2455C40.5829 10.8174 40.9529 10.4727 41.3975 10.255L41.6925 10.135L44.2575 9.26L45.1325 6.6925C45.3011 6.19856 45.62 5.76977 46.0446 5.46625C46.4692 5.16272 46.9781 4.99969 47.5 5Z" fill="#75B73E"/>
</svg>
