<svg width="24" height="24" viewBox="0 0 24 24" fill="none" xmlns="http://www.w3.org/2000/svg">
<path fill-rule="evenodd" clip-rule="evenodd" d="M19 2C19.3228 3.50309 20.4969 4.67723 22 5C20.4969 5.32277 19.3228 6.49691 19 8C18.6772 6.49691 17.5031 5.32277 16 5C17.5031 4.67723 18.6772 3.50309 19 2ZM9.07204 2.2C9.98354 6.44472 13.2993 9.7605 17.544 10.672C13.2993 11.5835 9.98354 14.8993 9.07204 19.144C8.16054 14.8993 4.84475 11.5835 0.600037 10.672C4.84475 9.7605 8.16054 6.44472 9.07204 2.2ZM22 18C19.9959 17.5696 18.4303 16.0041 18 14C17.5696 16.0041 16.0041 17.5696 14 18C16.0041 18.4304 17.5696 19.9959 18 22C18.4303 19.9959 19.9959 18.4304 22 18Z" fill="white"/>
</svg>
