<svg width="60" height="60" viewBox="0 0 60 60" fill="none" xmlns="http://www.w3.org/2000/svg">
<path d="M53.525 21.5999V21.4749C51.7635 16.6655 48.5673 12.5132 44.3687 9.57961C40.1702 6.64606 35.1719 5.07288 30.05 5.07288C24.9281 5.07288 19.9298 6.64606 15.7313 9.57961C11.5327 12.5132 8.3365 16.6655 6.575 21.4749C6.575 21.4749 6.575 21.4749 6.575 21.5999C4.60781 27.0272 4.60781 32.9727 6.575 38.3999V38.525C8.3365 43.3344 11.5327 47.4867 15.7313 50.4203C19.9298 53.3538 24.9281 54.927 30.05 54.927C35.1719 54.927 40.1702 53.3538 44.3687 50.4203C48.5673 47.4867 51.7635 43.3344 53.525 38.525C53.525 38.525 53.525 38.5249 53.525 38.3999C55.4922 32.9727 55.4922 27.0272 53.525 21.5999ZM10.65 35C9.78077 31.7233 9.78077 28.2766 10.65 24.9999H15.3C14.8994 28.3212 14.8994 31.6787 15.3 35H10.65ZM12.7 40H16.2C16.7837 42.2306 17.6225 44.3865 18.7 46.425C16.2482 44.7548 14.1987 42.5601 12.7 40ZM16.2 19.9999H12.7C14.1772 17.4477 16.2005 15.2536 18.625 13.5749C17.5734 15.6167 16.7597 17.7725 16.2 19.9999ZM27.5 49.25C24.4294 46.9967 22.2729 43.713 21.425 40H27.5V49.25ZM27.5 35H20.35C19.8848 31.6828 19.8848 28.3171 20.35 24.9999H27.5V35ZM27.5 19.9999H21.425C22.2729 16.2869 24.4294 13.0032 27.5 10.7499V19.9999ZM47.3 19.9999H43.8C43.2163 17.7693 42.3775 15.6134 41.3 13.5749C43.7518 15.2451 45.8013 17.4398 47.3 19.9999ZM32.5 10.7499C35.5706 13.0032 37.7271 16.2869 38.575 19.9999H32.5V10.7499ZM32.5 49.25V40H38.575C37.7271 43.713 35.5706 46.9967 32.5 49.25ZM39.65 35H32.5V24.9999H39.65C40.1152 28.3171 40.1152 31.6828 39.65 35ZM41.375 46.425C42.4525 44.3865 43.2913 42.2306 43.875 40H47.375C45.8763 42.5601 43.8268 44.7548 41.375 46.425ZM49.35 35H44.7C44.9044 33.3412 45.0046 31.6712 45 30C45.0046 28.3287 44.9044 26.6587 44.7 24.9999H49.35C50.2192 28.2766 50.2192 31.7233 49.35 35Z" fill="#75B73E"/>
</svg>
