<svg width="24" height="24" viewBox="0 0 24 24" fill="none" xmlns="http://www.w3.org/2000/svg">
<path fill-rule="evenodd" clip-rule="evenodd" d="M2.46967 9.21967C2.76256 8.92678 3.23744 8.92678 3.53033 9.21967L5.03033 10.7197C5.32322 11.0126 5.32322 11.4874 5.03033 11.7803C4.73744 12.0732 4.26256 12.0732 3.96967 11.7803L3 10.8107L2.03033 11.7803C1.73744 12.0732 1.26256 12.0732 0.96967 11.7803C0.676777 11.4874 0.676777 11.0126 0.96967 10.7197L2.46967 9.21967Z" fill="white" fill-opacity="0.9"/>
<path fill-rule="evenodd" clip-rule="evenodd" d="M18.9697 12.2197C19.2626 11.9268 19.7374 11.9268 20.0303 12.2197L21 13.1893L21.9697 12.2197C22.2626 11.9268 22.7374 11.9268 23.0303 12.2197C23.3232 12.5126 23.3232 12.9874 23.0303 13.2803L21.5303 14.7803C21.2374 15.0732 20.7626 15.0732 20.4697 14.7803L18.9697 13.2803C18.6768 12.9874 18.6768 12.5126 18.9697 12.2197Z" fill="white" fill-opacity="0.9"/>
<path fill-rule="evenodd" clip-rule="evenodd" d="M12 3.75C9.23022 3.75 6.78752 5.12317 5.28868 7.2254C5.04821 7.56267 4.57987 7.64114 4.2426 7.40068C3.90533 7.16021 3.82686 6.69187 4.06732 6.3546C5.83248 3.87883 8.71978 2.25 12 2.25C17.3842 2.25 21.75 6.61579 21.75 12C21.75 12.745 21.6596 13.4643 21.5047 14.1526C21.4138 14.5567 21.0125 14.8106 20.6084 14.7197C20.2043 14.6288 19.9504 14.2275 20.0413 13.8234C20.1744 13.2317 20.25 12.623 20.25 12C20.25 7.44421 16.5558 3.75 12 3.75Z" fill="white" fill-opacity="0.9"/>
<path fill-rule="evenodd" clip-rule="evenodd" d="M3.96711 6.55098C4.09912 6.15836 4.52441 5.9471 4.91702 6.07911C7.14645 6.82871 9.52284 7.25 12 7.25C14.4772 7.25 16.8535 6.82871 19.083 6.07911C19.4756 5.9471 19.9009 6.15836 20.0329 6.55098C20.1649 6.94359 19.9536 7.36888 19.561 7.50089C17.1865 8.29929 14.6488 8.75 12 8.75C9.35116 8.75 6.81355 8.29929 4.43898 7.50089C4.04636 7.36888 3.8351 6.94359 3.96711 6.55098Z" fill="white" fill-opacity="0.9"/>
<path fill-rule="evenodd" clip-rule="evenodd" d="M3.38763 9.27629C3.79175 9.36722 4.04563 9.76852 3.95471 10.1726C3.82157 10.7643 3.746 11.373 3.746 11.996C3.746 16.5518 7.44021 20.246 11.996 20.246C14.7669 20.246 17.2094 18.8728 18.7072 16.7708C18.9476 16.4334 19.4159 16.3548 19.7532 16.5952C20.0906 16.8356 20.1692 17.3039 19.9288 17.6412C18.1646 20.1172 15.2771 21.746 11.996 21.746C6.61179 21.746 2.246 17.3802 2.246 11.996C2.246 11.251 2.33643 10.5317 2.49129 9.84337C2.58222 9.43925 2.98352 9.18537 3.38763 9.27629Z" fill="white" fill-opacity="0.9"/>
<path fill-rule="evenodd" clip-rule="evenodd" d="M11.997 16.746C9.51984 16.746 7.14345 17.1673 4.91402 17.9169C4.52141 18.0489 4.09612 17.8376 3.96411 17.445C3.8321 17.0524 4.04336 16.6271 4.43598 16.4951C6.81055 15.6967 9.34816 15.246 11.997 15.246C14.6458 15.246 17.1835 15.6967 19.558 16.4951C19.9506 16.6271 20.1619 17.0524 20.0299 17.445C19.8979 17.8376 19.4726 18.0489 19.08 17.9169C16.8505 17.1673 14.4742 16.746 11.997 16.746Z" fill="white" fill-opacity="0.9"/>
<path fill-rule="evenodd" clip-rule="evenodd" d="M10.006 3.18093C10.5467 2.63209 11.221 2.25 12 2.25C12.779 2.25 13.4533 2.63209 13.994 3.18093C14.532 3.72712 14.982 4.47899 15.344 5.34758C16.0691 7.08802 16.5 9.44045 16.5 12C16.5 14.5596 16.0691 16.912 15.344 18.6524C14.982 19.521 14.532 20.2729 13.994 20.8191C13.4533 21.3679 12.779 21.75 12 21.75C11.221 21.75 10.5467 21.3679 10.006 20.8191C9.46798 20.2729 9.01795 19.521 8.65604 18.6524C7.93086 16.912 7.5 14.5596 7.5 12C7.5 9.44045 7.93086 7.08802 8.65604 5.34758C9.01795 4.47899 9.46798 3.72712 10.006 3.18093ZM10.0407 5.9245C9.40861 7.44141 9 9.58899 9 12C9 14.411 9.40861 16.5586 10.0407 18.0755C10.3574 18.8356 10.7154 19.4017 11.0746 19.7664C11.4312 20.1284 11.7435 20.25 12 20.25C12.2565 20.25 12.5688 20.1284 12.9254 19.7664C13.2846 19.4017 13.6426 18.8356 13.9593 18.0755C14.5914 16.5586 15 14.411 15 12C15 9.58899 14.5914 7.44141 13.9593 5.9245C13.6426 5.16441 13.2846 4.59826 12.9254 4.2336C12.5688 3.87159 12.2565 3.75 12 3.75C11.7435 3.75 11.4312 3.87159 11.0746 4.2336C10.7154 4.59826 10.3574 5.16441 10.0407 5.9245Z" fill="white" fill-opacity="0.9"/>
</svg>
