<svg width="188" height="48" viewBox="0 0 188 48" fill="none" xmlns="http://www.w3.org/2000/svg">
<path fill-rule="evenodd" clip-rule="evenodd" d="M64.0086 8.64789C64.0086 7.42794 65.0084 6.43896 66.2417 6.43896H70.132C71.0098 6.43896 71.8606 6.73987 72.5393 7.29046L73.7227 8.25042L73.7523 8.27712C73.7796 8.268 73.8069 8.2591 73.8343 8.25042C75.9694 7.57398 78.5598 7.44533 81.2037 7.44533C83.8476 7.44533 86.438 7.57398 88.5731 8.25042C88.6005 8.2591 88.6278 8.268 88.6551 8.27712L88.6847 8.25042L89.8681 7.29046C90.5468 6.73987 91.3976 6.43896 92.2754 6.43896H96.1656C97.399 6.43896 98.3988 7.42794 98.3988 8.64789V10.0134C98.3988 11.0699 97.9489 12.0776 97.1593 12.7891L96.2046 13.6496C95.7386 14.0697 95.1792 14.3754 94.5716 14.5421L94.3457 14.604C95.2304 16.692 95.7191 18.9238 95.7191 20.7292C95.7191 27.9919 91.1761 31.1286 87.1733 33.8923L87.1731 33.8925C84.0209 36.0689 81.2037 38.0141 81.2037 41.561C81.2037 38.0141 78.3865 36.0689 75.2343 33.8925L75.2341 33.8923C71.2313 31.1286 66.6883 27.9919 66.6883 20.7292C66.6883 18.9238 67.177 16.692 68.0617 14.604L67.8358 14.5421C67.2282 14.3754 66.6688 14.0697 66.2028 13.6496L65.2481 12.7891C64.4585 12.0776 64.0086 11.0699 64.0086 10.0134V8.64789ZM84.1068 26.6668C84.1068 27.0138 83.9538 27.3465 83.6816 27.5919C83.4094 27.8372 83.0402 27.9751 82.6552 27.9751C82.3229 27.9751 82.0022 27.8723 81.7456 27.6863C82.1824 28.8427 83.3 29.9384 85 28.1763C86.5008 26.539 84.9333 23.0858 83.4062 21.0366C82.8972 20.3535 82.0616 20.0248 81.2037 20.0248C80.3458 20.0248 79.5102 20.3535 79.0012 21.0366C77.4741 23.0858 75.9066 26.539 77.4074 28.1763C79.1074 29.9384 80.225 28.8427 80.6618 27.6863C80.4052 27.8723 80.0845 27.9751 79.7522 27.9751C79.3672 27.9751 78.998 27.8372 78.7258 27.5919C78.4536 27.3465 78.3006 27.0138 78.3006 26.6668H84.1068ZM75.645 16.4445H71.6013L74.7882 18.9686C75.4894 19.5239 76.5145 19.3464 76.9484 18.5944C77.4963 17.6448 76.7686 16.4445 75.645 16.4445ZM86.7624 16.4445H90.8061L87.6193 18.9686C86.918 19.5239 85.8929 19.3464 85.459 18.5944C84.9111 17.6448 85.6388 16.4445 86.7624 16.4445ZM103.216 31.3169H106.798V17.8038H103.216V31.3169ZM103.216 15.6965H106.798V12.4828H103.216V15.6965ZM112.689 35.7424H109.107V17.8038H112.558V19.4897H112.637C113.506 18.3043 114.77 17.4351 116.614 17.4351C120.197 17.4351 122.488 20.359 122.488 24.5736C122.488 28.9463 120.118 31.7121 116.64 31.7121C114.744 31.7121 113.506 30.9482 112.742 29.7892H112.689V35.7424ZM112.61 24.679C112.61 27.1287 113.743 28.7355 115.877 28.7355C117.694 28.7355 118.853 27.2341 118.853 24.679C118.853 22.1238 117.958 20.3326 115.745 20.3326C113.506 20.3326 112.61 22.2555 112.61 24.679ZM129.635 31.7121C133.006 31.7121 135.324 30.079 135.324 27.3658C135.324 24.2048 132.822 23.5726 130.557 23.0985C130.247 23.0348 129.94 22.9786 129.644 22.9244L129.644 22.9243C128.103 22.642 126.842 22.4111 126.842 21.439C126.842 20.4643 127.764 19.9375 129.161 19.9375C130.688 19.9375 131.61 20.4643 131.768 21.9131H135.008C134.745 19.1999 132.769 17.4351 129.213 17.4351C126.131 17.4351 123.708 18.8312 123.708 21.7551C123.708 24.7053 126.079 25.3638 128.502 25.838C128.734 25.8844 128.964 25.9271 129.189 25.9688C130.75 26.2583 132.058 26.5009 132.058 27.6292C132.058 28.5775 131.162 29.1834 129.582 29.1834C127.975 29.1834 126.869 28.4985 126.632 26.9443H123.313C123.523 29.8155 125.71 31.7121 129.635 31.7121ZM148.926 17.8038V31.317H145.476V29.7365H145.397C144.475 30.9746 143.421 31.6858 141.524 31.6858C138.521 31.6858 136.836 29.7629 136.836 26.8126V17.8038H140.392V26.2068C140.392 27.7872 141.103 28.6565 142.631 28.6565C144.317 28.6565 145.344 27.3921 145.344 25.6009V17.8038H148.926ZM151.243 31.317H154.826V23.4673C154.826 21.676 155.801 20.517 157.249 20.517C158.566 20.517 159.33 21.3073 159.33 22.8351V31.317H162.913V23.4673C162.913 21.676 163.835 20.517 165.336 20.517C166.653 20.517 167.417 21.3073 167.417 22.8351V31.317H171V22.2292C171 19.279 169.393 17.4351 166.548 17.4351C164.836 17.4351 163.413 18.3307 162.491 19.8058H162.439C161.78 18.3834 160.41 17.4351 158.698 17.4351C156.828 17.4351 155.511 18.3834 154.773 19.6214H154.694V17.8038H151.243V31.317ZM16.3542 31.3169H12.7717V12.4828H16.3542V31.3169ZM25.1138 31.7121C29.3021 31.7121 32.1733 28.6038 32.1733 24.5736C32.1733 20.5434 29.3021 17.4351 25.1138 17.4351C20.9254 17.4351 18.0542 20.5434 18.0542 24.5736C18.0542 28.6038 20.9254 31.7121 25.1138 31.7121ZM25.1138 28.9726C22.9011 28.9726 21.6894 27.2077 21.6894 24.5736C21.6894 21.9394 22.9011 20.1482 25.1138 20.1482C27.3001 20.1482 28.5382 21.9394 28.5382 24.5736C28.5382 27.2077 27.3001 28.9726 25.1138 28.9726ZM44.6648 34.399C43.5322 35.4526 41.7936 35.9268 39.7917 35.9268C36.1039 35.9268 33.8385 34.3463 33.4697 31.7121H37.0258C37.3156 32.5551 38.0795 33.2136 39.739 33.2136C41.7673 33.2136 42.7419 32.239 42.7419 30.3951V28.9199H42.6629C41.8726 29.8155 40.8453 30.5004 39.1331 30.5004C36.1302 30.5004 33.18 28.1297 33.18 24.0468C33.18 20.0165 35.6034 17.4351 39.0278 17.4351C40.7136 17.4351 41.9517 18.0936 42.7683 19.2263H42.8209V17.8038H46.2717V30.2897C46.2717 32.1863 45.6658 33.477 44.6648 34.399ZM36.6834 23.9941C36.6834 26.2858 37.8951 27.6292 39.739 27.6292C42.0044 27.6292 42.9263 25.9697 42.9263 23.9677C42.9263 21.9921 41.8726 20.3063 39.7126 20.3063C37.8951 20.3063 36.6834 21.7287 36.6834 23.9941ZM54.9794 31.7121C59.1677 31.7121 62.0389 28.6038 62.0389 24.5736C62.0389 20.5434 59.1677 17.4351 54.9794 17.4351C50.7911 17.4351 47.9199 20.5434 47.9199 24.5736C47.9199 28.6038 50.7911 31.7121 54.9794 31.7121ZM54.9794 28.9726C52.7667 28.9726 51.555 27.2077 51.555 24.5736C51.555 21.9394 52.7667 20.1482 54.9794 20.1482C57.1657 20.1482 58.4038 21.9394 58.4038 24.5736C58.4038 27.2077 57.1657 28.9726 54.9794 28.9726ZM171.936 13.756C171.329 13.756 170.838 14.2474 170.838 14.8535C170.838 15.4597 171.329 15.9511 171.936 15.9511H174.131C174.737 15.9511 175.228 15.4597 175.228 14.8535C175.228 14.2474 174.737 13.756 174.131 13.756H171.936Z" fill="#626981"/>
</svg>
