<svg width="188" height="48" viewBox="0 0 188 48" fill="none" xmlns="http://www.w3.org/2000/svg">
<path fill-rule="evenodd" clip-rule="evenodd" d="M54.8625 23.9999C54.8625 33.6986 47.0002 41.5609 37.3015 41.5609C27.6028 41.5609 19.7405 33.6986 19.7405 23.9999C19.7405 14.3013 27.6028 6.43896 37.3015 6.43896C47.0002 6.43896 54.8625 14.3013 54.8625 23.9999ZM40.012 14.5861C41.5089 16.0831 41.5089 18.5101 40.012 20.0071L37.3015 22.7175L34.591 20.0071C33.0941 18.5101 33.0941 16.0831 34.591 14.5861C36.088 13.0891 38.515 13.0891 40.012 14.5861ZM46.7154 26.7104C45.2184 28.2074 42.7914 28.2074 41.2944 26.7104L38.584 24L41.2944 21.2895C42.7914 19.7926 45.2184 19.7926 46.7154 21.2895C48.2123 22.7864 48.2123 25.2135 46.7154 26.7104ZM40.012 27.9928C41.5089 29.4898 41.5089 31.9168 40.012 33.4138C38.515 34.9108 36.088 34.9108 34.591 33.4138C33.0941 31.9168 33.0941 29.4898 34.591 27.9928L37.3015 25.2824L40.012 27.9928ZM27.8876 21.2895C26.3907 22.7864 26.3907 25.2135 27.8876 26.7104C29.3846 28.2074 31.8117 28.2074 33.3086 26.7104L36.0191 24L33.3086 21.2895C31.8117 19.7926 29.3846 19.7926 27.8876 21.2895ZM75.1701 31.9024H64.6756V16.8351H68.4056V28.7414H75.1701V31.9024ZM79.1117 26.5287C79.1117 28.4885 79.8914 29.795 81.3876 29.795C82.8838 29.795 83.6846 28.4885 83.6846 26.5287C83.6846 24.5689 82.8838 23.2413 81.3876 23.2413C79.8914 23.2413 79.1117 24.5689 79.1117 26.5287ZM87.1617 26.5287C87.1617 29.774 84.8858 32.2395 81.4087 32.2395C77.9527 32.2395 75.6346 29.774 75.6346 26.5287C75.6346 23.2834 77.9527 20.8179 81.4087 20.8179C84.8858 20.8179 87.1617 23.2834 87.1617 26.5287ZM93.1802 35.6323C94.7817 35.6323 96.1936 35.274 97.1419 34.4311C98.0059 33.6514 98.5749 32.4713 98.5749 30.8487V21.1129H95.2875V22.2719H95.2453C94.6131 21.3657 93.6438 20.7968 92.2108 20.7968C89.5345 20.7968 87.6801 23.0305 87.6801 26.1915C87.6801 29.5 89.9349 31.3123 92.3583 31.3123C93.6648 31.3123 94.4867 30.7854 95.1189 30.0689H95.2032V31.1437C95.2032 32.4502 94.5921 33.2089 93.138 33.2089C92.0001 33.2089 91.4311 32.7242 91.2414 32.1552H87.9119C88.249 34.41 90.2088 35.6323 93.1802 35.6323ZM93.1591 28.7624C91.8736 28.7624 91.0307 27.7088 91.0307 26.0861C91.0307 24.4424 91.8736 23.3888 93.1591 23.3888C94.5921 23.3888 95.3507 24.611 95.3507 26.065C95.3507 27.5823 94.6553 28.7624 93.1591 28.7624ZM103.059 26.5287C103.059 28.4885 103.838 29.795 105.334 29.795C106.831 29.795 107.631 28.4885 107.631 26.5287C107.631 24.5689 106.831 23.2413 105.334 23.2413C103.838 23.2413 103.059 24.5689 103.059 26.5287ZM111.108 26.5287C111.108 29.774 108.832 32.2395 105.356 32.2395C101.9 32.2395 99.5815 29.774 99.5815 26.5287C99.5815 23.2834 101.9 20.8179 105.356 20.8179C108.832 20.8179 111.108 23.2834 111.108 26.5287ZM112.112 31.9024H115.547V21.1129H112.112V31.9024ZM112.112 19.6167H115.547V16.8351H112.112V19.6167ZM120.472 35.4637H117.037V21.1129H120.324V22.4194H120.387C121.125 21.45 122.179 20.7968 123.654 20.7968C126.52 20.7968 128.269 23.2623 128.269 26.5076C128.269 30.0057 126.393 32.2395 123.569 32.2395C122.179 32.2395 121.188 31.6916 120.514 30.7854H120.472V35.4637ZM120.366 26.634C120.366 28.3831 121.209 29.5843 122.684 29.5843C123.991 29.5843 124.792 28.4674 124.792 26.634C124.792 24.7796 124.096 23.5573 122.621 23.5573C121.125 23.5573 120.366 24.8849 120.366 26.634ZM133.861 32.2395C136.685 32.2395 138.771 31.0172 138.771 28.657C138.771 25.8965 136.537 25.4118 134.641 25.0957C134.472 25.0645 134.305 25.0355 134.142 25.0073C132.988 24.8068 132.049 24.6438 132.049 23.9788C132.049 23.3045 132.702 22.9884 133.545 22.9884C134.493 22.9884 135.146 23.2834 135.273 24.2528H138.434C138.265 22.1244 136.622 20.7968 133.566 20.7968C131.016 20.7968 128.909 21.9769 128.909 24.2528C128.909 26.7815 130.911 27.2873 132.786 27.6034C132.936 27.6298 133.085 27.6546 133.23 27.679C134.478 27.8877 135.526 28.063 135.526 28.931C135.526 29.6264 134.873 30.0057 133.84 30.0057C132.702 30.0057 131.986 29.4789 131.859 28.4042H128.614C128.719 30.7854 130.7 32.2395 133.861 32.2395ZM146.661 30.5748C145.882 31.6284 144.933 32.2185 143.437 32.2185C140.95 32.2185 139.644 30.5958 139.644 28.1935V21.1129H143.058V27.477C143.058 28.6571 143.585 29.3104 144.68 29.3104C145.86 29.3104 146.577 28.4253 146.577 27.1398V21.1129H150.012V31.9024H146.724V30.5748H146.661ZM151.506 31.9023H154.941V25.8543C154.941 24.5689 155.573 23.6627 156.648 23.6627C157.681 23.6627 158.165 24.337 158.165 25.4961V31.9023H161.6V25.8543C161.6 24.5689 162.211 23.6627 163.307 23.6627C164.34 23.6627 164.825 24.337 164.825 25.4961V31.9023H168.259V24.8849C168.259 22.4615 167.037 20.7968 164.593 20.7968C163.202 20.7968 162.043 21.3868 161.2 22.6933H161.158C160.61 21.5343 159.535 20.7968 158.123 20.7968C156.564 20.7968 155.531 21.5343 154.857 22.6512H154.794V21.1129H151.506V31.9023Z" fill="#626981"/>
</svg>
