<svg width="188" height="48" viewBox="0 0 188 48" fill="none" xmlns="http://www.w3.org/2000/svg">
<path fill-rule="evenodd" clip-rule="evenodd" d="M33.1754 21.2316C26.763 21.2316 21.4821 16.3868 20.7936 10.158H29.7027C30.2528 11.5368 31.6003 12.5111 33.1754 12.5111C34.7504 12.5111 36.0979 11.5368 36.6479 10.158H45.557C44.8685 16.3868 39.5876 21.2316 33.1754 21.2316ZM68.0329 33.8533C69.0046 34.8928 70.4056 35.4124 72.2358 35.4124C74.0661 35.4124 75.467 34.8928 76.4387 33.8533C77.4103 32.8139 77.8961 31.3452 77.8961 29.447V16.974C77.8961 15.076 77.4103 13.6072 76.4387 12.5678C75.467 11.5284 74.0661 11.0087 72.2358 11.0087C70.4056 11.0087 69.0046 11.5284 68.0329 12.5678C67.0613 13.6072 66.5755 15.076 66.5755 16.974V29.447C66.5755 31.3452 67.0613 32.8139 68.0329 33.8533ZM74.1678 29.6843C74.1678 31.2434 73.5238 32.023 72.2358 32.023C70.9478 32.023 70.3038 31.2434 70.3038 29.6843V16.7368C70.3038 15.1776 70.9478 14.3981 72.2358 14.3981C73.5238 14.3981 74.1678 15.1776 74.1678 16.7368V29.6843ZM59.0563 11.3477H55.3279V35.0736H65.1911V31.6841H59.0563V11.3477ZM85.705 35.4124C83.8974 35.4124 82.519 34.9041 81.5699 33.8872C80.6209 32.8478 80.1464 31.3677 80.1464 29.447V16.974C80.1464 15.0534 80.6209 13.5846 81.5699 12.5678C82.519 11.5284 83.8974 11.0087 85.705 11.0087C87.5127 11.0087 88.8911 11.5284 89.8401 12.5678C90.7892 13.5846 91.2637 15.0534 91.2637 16.974V19.0077H87.7387V16.7368C87.7387 15.1776 87.0947 14.3981 85.8067 14.3981C84.5188 14.3981 83.8748 15.1776 83.8748 16.7368V29.7183C83.8748 31.2548 84.5188 32.023 85.8067 32.023C87.0947 32.023 87.7387 31.2548 87.7387 29.7183V25.0747H85.8745V21.6853H91.2637V29.447C91.2637 31.3677 90.7892 32.8478 89.8401 33.8872C88.8911 34.9041 87.5127 35.4124 85.705 35.4124ZM94.8438 33.8533C95.8154 34.8928 97.2163 35.4124 99.0466 35.4124C100.877 35.4124 102.278 34.8928 103.249 33.8533C104.221 32.8139 104.707 31.3452 104.707 29.447V16.974C104.707 15.076 104.221 13.6072 103.249 12.5678C102.278 11.5284 100.877 11.0087 99.0466 11.0087C97.2163 11.0087 95.8154 11.5284 94.8438 12.5678C93.8721 13.6072 93.3863 15.076 93.3863 16.974V29.447C93.3863 31.3452 93.8721 32.8139 94.8438 33.8533ZM100.979 29.6843C100.979 31.2434 100.335 32.023 99.0466 32.023C97.7587 32.023 97.1147 31.2434 97.1147 29.6843V16.7368C97.1147 15.1776 97.7587 14.3981 99.0466 14.3981C100.335 14.3981 100.979 15.1776 100.979 16.7368V29.6843ZM107.235 11.3477H110.964V35.0736H107.235V11.3477ZM119.247 11.3477H113.756V35.0736H117.485V25.4137H119.247C121.099 25.4137 122.489 24.9166 123.416 23.9224C124.343 22.9281 124.806 21.4707 124.806 19.55V17.2113C124.806 15.2907 124.343 13.8332 123.416 12.839C122.489 11.8448 121.099 11.3477 119.247 11.3477ZM120.603 21.5159C120.309 21.8548 119.857 22.0243 119.247 22.0243H117.485V14.7371H119.247C119.857 14.7371 120.309 14.9065 120.603 15.2455C120.919 15.5844 121.077 16.1606 121.077 16.9741V19.7873C121.077 20.6008 120.919 21.1769 120.603 21.5159ZM131.809 35.4124C130.002 35.4124 128.635 34.9041 127.708 33.8872C126.782 32.8478 126.319 31.3677 126.319 29.447V28.0913H129.844V29.7183C129.844 31.2548 130.488 32.023 131.776 32.023C132.409 32.023 132.883 31.8423 133.199 31.4808C133.538 31.0966 133.708 30.4865 133.708 29.6504C133.708 28.6562 133.482 27.7863 133.03 27.0406C132.578 26.2723 131.742 25.3572 130.521 24.2951C128.985 22.9394 127.912 21.7192 127.301 20.6346C126.692 19.5274 126.387 18.2846 126.387 16.9063C126.387 15.0308 126.861 13.5846 127.81 12.5678C128.759 11.5284 130.138 11.0087 131.946 11.0087C133.73 11.0087 135.075 11.5284 135.979 12.5678C136.905 13.5846 137.368 15.0534 137.368 16.974V17.957H133.843V16.7368C133.843 15.9233 133.685 15.3358 133.369 14.9743C133.053 14.5901 132.59 14.3981 131.979 14.3981C130.736 14.3981 130.115 15.155 130.115 16.669C130.115 17.5276 130.341 18.3298 130.793 19.0755C131.267 19.8211 132.115 20.7249 133.335 21.787C134.894 23.1427 135.967 24.3743 136.555 25.4815C137.142 26.5887 137.436 27.8879 137.436 29.3793C137.436 31.3226 136.95 32.8139 135.979 33.8533C135.029 34.8928 133.64 35.4124 131.809 35.4124ZM140.862 33.8872C141.811 34.9041 143.19 35.4125 144.997 35.4125C146.804 35.4125 148.183 34.9041 149.132 33.8872C150.081 32.8479 150.555 31.3678 150.555 29.4471V11.3477H146.963V29.7183C146.963 30.5317 146.793 31.1192 146.454 31.4808C146.138 31.8423 145.675 32.0231 145.065 32.0231C144.455 32.0231 143.98 31.8423 143.641 31.4808C143.325 31.1192 143.167 30.5317 143.167 29.7183V11.3477H139.438V29.4471C139.438 31.3678 139.913 32.8479 140.862 33.8872ZM153.211 11.3477H158.533L160.905 28.3286H160.972L163.346 11.3477H168.667V35.0736H165.141V17.1097H165.074L162.362 35.0736H159.244L156.532 17.1097H156.465V35.0736H153.211V11.3477ZM27.6386 26.7684C27.6386 31.3551 23.9202 35.0735 19.3334 35.0735V29.2599C20.7094 29.2599 21.8249 28.1444 21.8249 26.7684C21.8249 25.3923 20.7094 24.2767 19.3334 24.2767V18.4631C23.9202 18.4631 27.6386 22.1815 27.6386 26.7684ZM47.0173 21.2316C45.5981 20.782 44.0868 20.5394 42.5187 20.5394C34.3006 20.5394 27.6386 27.2016 27.6386 35.4196C27.6386 36.2444 27.7057 37.0536 27.8347 37.8419H37.0802C36.7502 37.102 36.5667 36.2822 36.5667 35.4196C36.5667 32.1324 39.2315 29.4675 42.5187 29.4675C44.3153 29.4675 45.926 30.2635 47.0173 31.5221V21.2316Z" fill="#626981"/>
</svg>
