<svg width="188" height="48" viewBox="0 0 188 48" fill="none" xmlns="http://www.w3.org/2000/svg">
<path fill-rule="evenodd" clip-rule="evenodd" d="M54.1981 14.337C55.1179 15.4304 55.8756 16.6504 56.4481 17.9595C57.2821 19.8681 57.7111 21.929 57.7081 24.012C57.7052 28.05 56.1013 31.9222 53.2481 34.7797C50.3947 37.6372 46.525 39.2468 42.4869 39.2557C40.5306 39.2546 38.5933 38.8725 36.7831 38.1307C35.492 37.6177 34.28 36.9246 33.1831 36.072C31.4737 34.7692 30.0595 33.1192 29.0337 31.2304C28.0079 29.3418 27.3937 27.2573 27.2315 25.114C27.0693 22.9709 27.3629 20.8176 28.0929 18.7961C28.8228 16.7746 29.9726 14.9305 31.4666 13.3854C32.9606 11.8402 34.7648 10.6289 36.7606 9.83133C38.7565 9.0337 40.8986 8.66781 43.046 8.75771C45.1934 8.84761 47.2975 9.39126 49.2197 10.3529C51.1418 11.3145 52.8386 12.6723 54.1981 14.337ZM47.5606 12.9757C45.968 12.2345 44.2324 11.8505 42.4756 11.8507L42.4869 11.8282C40.4374 11.8267 38.4207 12.3437 36.6246 13.331C34.8285 14.3184 33.3114 15.7441 32.2145 17.4754C31.1175 19.2068 30.4764 21.1874 30.3507 23.2331C30.225 25.2788 30.6189 27.3232 31.4956 29.1757C32.0038 28.6419 32.3169 27.9522 32.3844 27.2182C32.5836 25.8419 33.2226 24.5669 34.206 23.5836C35.1893 22.6002 36.4643 21.9612 37.8406 21.762C38.6143 21.6918 39.34 21.357 39.8954 20.8138C40.4509 20.2707 40.802 19.5526 40.8894 18.7807C41.0886 17.4044 41.7276 16.1294 42.711 15.146C43.6943 14.1627 44.9693 13.5237 46.3456 13.3245C46.7639 13.2607 47.1723 13.1435 47.5606 12.9757ZM33.3069 31.7657C33.2619 31.8057 33.2169 31.8457 33.1719 31.887C34.0439 32.9076 35.0776 33.7779 36.2319 34.4632C36.5337 33.9997 36.7226 33.4718 36.7831 32.922C36.9893 31.5428 37.635 30.2671 38.624 29.2841C39.6131 28.3011 40.8928 27.6634 42.2731 27.4657C43.0479 27.3893 43.7724 27.0474 44.324 26.4979C44.8755 25.9484 45.2201 25.2252 45.2994 24.4507C45.4951 23.0729 46.133 21.7961 47.1169 20.812C48.101 19.8281 49.3778 19.1902 50.7556 18.9945C51.5317 18.9211 52.2549 18.5694 52.7919 18.0045C52.8463 17.9576 52.8954 17.9047 52.9381 17.847C52.2421 16.6577 51.3437 15.5993 50.2831 14.7195C49.3517 15.5921 48.1725 16.1542 46.9081 16.3282C46.1318 16.3812 45.4007 16.7128 44.8494 17.262C44.2681 17.8321 43.9193 18.5979 43.8706 19.4107C43.6714 20.787 43.0324 22.062 42.049 23.0454C41.0657 24.0287 39.7907 24.6677 38.4144 24.867C37.6404 24.9303 36.9162 25.2744 36.3781 25.8345C35.819 26.379 35.472 27.1048 35.3994 27.882C35.2202 29.2645 34.5777 30.5454 33.5769 31.5157C33.4869 31.6057 33.3969 31.6857 33.3069 31.7657ZM39.1006 35.757C40.198 36.0716 41.3341 36.2307 42.4756 36.2295V36.1732C44.3348 36.166 46.1675 35.733 47.8333 34.9075C49.4992 34.082 50.9537 32.8857 52.0855 31.4109C53.2172 29.9359 53.9962 28.2212 54.3624 26.3984C54.7286 24.5757 54.6724 22.6934 54.1981 20.8957C53.344 21.4996 52.3554 21.8858 51.3181 22.0207C50.5454 22.0996 49.8235 22.4426 49.2742 22.9918C48.725 23.541 48.382 24.263 48.3031 25.0357C48.1033 26.4136 47.4626 27.6899 46.4771 28.6734C45.4915 29.657 44.214 30.295 42.8356 30.492C42.0629 30.5708 41.341 30.9138 40.7917 31.4631C40.2425 32.0123 39.8995 32.7342 39.8206 33.507C39.7201 34.2946 39.476 35.0572 39.1006 35.757ZM69.2619 17.3407H65.8869V30.987H69.2619V17.3407ZM75.8657 20.4457C72.6707 20.4457 70.6007 22.4595 70.6007 25.8345C70.6007 29.2657 72.6257 31.2345 75.8657 31.2345C79.1057 31.2345 81.1306 29.2095 81.1306 25.8345C81.1306 22.4595 79.0607 20.4457 75.8657 20.4457ZM75.8657 22.887C77.0132 22.887 77.7444 23.9782 77.7444 25.8345V25.8457C77.7444 27.7245 77.0244 28.7595 75.8657 28.7595C74.7069 28.7595 73.9982 27.657 73.9982 25.8345C73.9982 24.012 74.7182 22.887 75.8657 22.887ZM85.6419 31.6507H82.4019V31.662C82.5932 33.5295 84.4494 34.8682 87.4307 34.8682C90.6369 34.8682 92.8082 33.3382 92.8082 30.8745V20.637H89.4332V22.5157C89.1791 21.9086 88.7456 21.3935 88.1906 21.0396C87.6356 20.6858 86.9858 20.51 86.3282 20.5357C83.7407 20.5357 82.1882 22.572 82.1882 25.8007C82.1882 29.0295 83.8194 30.9082 86.2832 30.9082C86.9208 30.9429 87.5543 30.7856 88.1017 30.4568C88.6491 30.1278 89.0855 29.6425 89.3544 29.0632H89.4219V30.9532C89.4219 31.9657 88.7469 32.6632 87.4644 32.6632C87.0921 32.7133 86.7136 32.6417 86.3852 32.4594C86.0568 32.2769 85.7961 31.9933 85.6419 31.6507ZM87.4869 23.1457C88.6794 23.1457 89.4332 24.1807 89.4332 25.8232V25.8345C89.4332 27.4995 88.6907 28.4107 87.4869 28.4107C86.2832 28.4107 85.5632 27.477 85.5632 25.8232C85.5632 24.1695 86.2944 23.1457 87.4869 23.1457ZM99.3444 20.4345C96.1494 20.4345 94.0794 22.4482 94.0794 25.8232V25.8345C94.0794 29.2657 96.0932 31.2232 99.3444 31.2232C102.596 31.2232 104.621 29.1982 104.621 25.8232C104.621 22.4482 102.539 20.4345 99.3444 20.4345ZM99.3444 22.8757C100.492 22.8757 101.223 23.967 101.223 25.8232V25.8457C101.223 27.7245 100.537 28.7707 99.3894 28.7707C98.2419 28.7707 97.5331 27.6795 97.5331 25.8457C97.5331 24.012 98.1969 22.8757 99.3444 22.8757ZM106.169 17.2199C105.987 17.508 105.894 17.8437 105.903 18.1845V18.207C105.901 18.4334 105.946 18.6579 106.035 18.8661C106.123 19.0745 106.254 19.2622 106.419 19.4175C106.584 19.5728 106.779 19.6923 106.992 19.7686C107.206 19.8449 107.432 19.8763 107.658 19.8607C107.999 19.854 108.33 19.7461 108.609 19.5509C108.889 19.3557 109.104 19.0819 109.228 18.7643C109.352 18.4466 109.378 18.0994 109.304 17.7667C109.23 17.4339 109.059 17.1306 108.813 16.8951C108.566 16.6597 108.255 16.5027 107.919 16.4442C107.584 16.3856 107.238 16.4281 106.926 16.5662C106.615 16.7043 106.351 16.9318 106.169 17.2199ZM109.278 20.6595H105.903V30.987H109.278V20.6595ZM117.468 31.122C120.033 31.122 121.529 29.1982 121.529 25.8232L121.574 25.8457C121.574 22.4707 120.033 20.5357 117.446 20.4907C116.783 20.4611 116.127 20.6364 115.568 20.9927C115.008 21.349 114.572 21.869 114.318 22.482H114.251V20.637H110.876V34.2945H114.251V29.2095H114.318C114.584 29.8125 115.029 30.3193 115.592 30.6614C116.156 31.0034 116.81 31.1642 117.468 31.122ZM116.219 23.1345C117.401 23.1345 118.154 24.1807 118.154 25.8232V25.8457C118.154 27.477 117.401 28.5007 116.219 28.5007C115.038 28.5007 114.262 27.4545 114.273 25.8232C114.284 24.192 115.038 23.1345 116.219 23.1345ZM131.902 23.877C131.823 21.7507 130.124 20.4232 127.323 20.4232V20.4457C124.533 20.4457 122.722 21.762 122.699 23.787C122.699 25.362 123.757 26.4307 125.771 26.847L127.717 27.2632C128.527 27.432 128.842 27.5445 128.842 28.0845C128.842 28.6245 128.392 28.9507 127.402 28.9507C126.412 28.9507 125.804 28.5007 125.703 27.7357H122.452C122.598 29.8395 124.477 31.212 127.346 31.212C130.214 31.212 132.161 29.8395 132.161 27.702C132.161 26.1382 131.283 25.3057 129.224 24.867L127.064 24.4282C126.311 24.2707 125.939 24.102 125.939 23.5732C125.939 23.0445 126.356 22.6845 127.289 22.6845C128.223 22.6845 128.831 23.1457 128.831 23.877H131.902ZM140.171 30.9645H143.422L143.467 20.637H140.092V26.4645C140.125 26.7077 140.103 26.955 140.032 27.1898C139.961 27.4244 139.84 27.6412 139.679 27.8256C139.517 28.0099 139.317 28.1575 139.094 28.2584C138.87 28.3593 138.627 28.4112 138.382 28.4107C137.336 28.4107 136.706 27.7582 136.706 26.532V20.637H133.331V27.3082C133.288 27.82 133.356 28.335 133.529 28.8184C133.702 29.3018 133.978 29.7425 134.336 30.1104C134.694 30.4784 135.128 30.765 135.606 30.9512C136.085 31.1374 136.598 31.2186 137.111 31.1895C137.78 31.2266 138.442 31.0337 138.986 30.6428C139.531 30.2519 139.924 29.6866 140.103 29.0407H140.171V30.9645ZM148.316 20.637H145.053L144.997 30.987H148.372V24.9007C148.346 24.6891 148.366 24.4746 148.429 24.2712C148.493 24.0677 148.599 23.88 148.741 23.7206C148.882 23.5612 149.056 23.4335 149.251 23.346C149.444 23.2586 149.656 23.2133 149.868 23.2132C150.791 23.2132 151.297 23.7757 151.297 24.8107V30.987H154.503V24.8782C154.476 24.6693 154.493 24.4569 154.555 24.2553C154.617 24.0538 154.721 23.868 154.861 23.7101C155 23.5523 155.173 23.4263 155.365 23.3406C155.557 23.2549 155.767 23.2114 155.977 23.2132C156.922 23.2132 157.428 23.7307 157.428 24.8557V30.987H160.803V23.9557C160.837 23.4977 160.773 23.0377 160.618 22.6058C160.461 22.174 160.216 21.7796 159.898 21.4486C159.579 21.1176 159.196 20.8571 158.769 20.6845C158.344 20.5117 157.887 20.4303 157.428 20.4457C156.725 20.4155 156.031 20.6202 155.457 21.0276C154.882 21.4349 154.459 22.0217 154.256 22.6957H154.188C154.08 22.0288 153.725 21.4272 153.194 21.0103C152.662 20.5933 151.993 20.3918 151.319 20.4457C150.658 20.4335 150.01 20.6411 149.479 21.036C148.948 21.4309 148.562 21.9909 148.383 22.6282H148.316V20.637Z" fill="#626981"/>
</svg>
