<svg width="188" height="48" viewBox="0 0 188 48" fill="none" xmlns="http://www.w3.org/2000/svg">
<path d="M150.383 6.14894C150.383 4.96594 151.342 4.00594 152.525 4.00594H153.954C154.523 4.00594 155.068 4.23172 155.47 4.63361C155.872 5.0355 156.097 5.58058 156.097 6.14894C156.097 6.7173 155.872 7.26238 155.47 7.66427C155.068 8.06616 154.523 8.29194 153.954 8.29194H152.525C152.244 8.29194 151.965 8.2365 151.705 8.12879C151.445 8.02108 151.209 7.86322 151.01 7.66421C150.811 7.4652 150.654 7.22895 150.546 6.96895C150.438 6.70896 150.383 6.43031 150.383 6.14894ZM90.3923 18.2899C90.3923 26.1779 83.9983 32.5729 76.1093 32.5729C68.2213 32.5729 61.8263 26.1779 61.8263 18.2899C61.8263 10.3999 68.2213 4.00694 76.1093 4.00694C83.9983 4.00694 90.3923 10.3999 90.3923 18.2899ZM59.0403 18.2189C59.8303 18.2189 60.4763 18.8589 60.3973 19.6449C60.1273 22.3348 59.0995 24.8927 57.4334 27.0216C55.7673 29.1504 53.5312 30.7627 50.985 31.6711C48.4389 32.5794 45.6872 32.7466 43.0498 32.153C40.4124 31.5595 37.9977 30.2297 36.0861 28.3181C34.1746 26.4066 32.8447 23.9918 32.2512 21.3544C31.6577 18.7171 31.8248 15.9654 32.7332 13.4192C33.6415 10.8731 35.2538 8.63699 37.3827 6.97085C39.5115 5.3047 42.0695 4.27691 44.7593 4.00694C45.5443 3.92694 46.1853 4.57494 46.1853 5.36294V16.7899C46.1853 17.5799 46.8253 18.2189 47.6143 18.2189H59.0403ZM110.389 35.4299C111.526 35.4299 112.616 35.8814 113.419 36.685C114.223 37.4886 114.674 38.5785 114.674 39.7149C114.674 40.8514 114.223 41.9413 113.419 42.7449C112.616 43.5485 111.526 43.9999 110.389 43.9999H103.248C102.112 43.9999 101.022 43.5485 100.218 42.7449C99.4148 41.9413 98.9633 40.8514 98.9633 39.7149C98.9633 38.5785 99.4148 37.4886 100.218 36.685C101.022 35.8814 102.112 35.4299 103.248 35.4299H110.389ZM106.104 32.5729C113.993 32.5729 120.388 26.1779 120.388 18.2899C120.392 15.8669 119.776 13.4832 118.599 11.3649L120.959 9.00494C121.231 8.73297 121.447 8.41012 121.594 8.05483C121.741 7.69954 121.817 7.31876 121.816 6.93423C121.816 6.5497 121.741 6.16896 121.593 5.81374C121.446 5.45852 121.23 5.13577 120.958 4.86394C120.686 4.5921 120.363 4.3765 120.008 4.22943C119.653 4.08236 119.272 4.00672 118.888 4.00681C118.503 4.0069 118.122 4.08273 117.767 4.22997C117.412 4.37721 117.089 4.59297 116.817 4.86494L114.757 6.92494C112.272 5.02684 109.23 4.00091 106.103 4.00594C98.2163 4.00694 91.8223 10.3999 91.8223 18.2899C91.8223 26.1779 98.2163 32.5729 106.104 32.5729ZM150.383 18.2899C150.383 26.1779 143.988 32.5729 136.099 32.5729C128.211 32.5729 121.816 26.1779 121.816 18.2899C121.816 10.3999 128.211 4.00694 136.099 4.00694C143.988 4.00694 150.383 10.4009 150.383 18.2899Z" fill="#626981"/>
</svg>
